<svg width="47" height="34" viewBox="0 0 47 34" fill="none" xmlns="http://www.w3.org/2000/svg">
<path d="M7.89662 2.5238C9.0579 1.12244 10.2638 0.339327 11.5144 0.174459C12.8544 0.00959509 13.971 0.256893 14.8643 0.916353C15.8469 1.49339 16.3829 2.40015 16.4722 3.63664C16.6509 4.7907 16.1149 6.06841 14.8643 7.46978C13.703 8.7887 12.765 10.1076 12.0504 11.4266C11.4251 12.663 10.9785 13.8995 10.7105 15.136C13.569 15.3833 15.8469 16.3313 17.5441 17.98C19.2414 19.5462 20.09 21.6482 20.09 24.2861C20.09 26.9239 19.1967 29.1084 17.4102 30.8395C15.6236 32.4882 13.2117 33.3125 10.1745 33.3125C7.048 33.3125 4.59145 32.3233 2.80487 30.3449C1.01829 28.3665 0.125 25.605 0.125 22.0604C0.125 19.0928 0.616309 16.0016 1.59893 12.7867C2.67088 9.48938 4.77011 6.06842 7.89662 2.5238ZM34.0253 2.5238C35.1866 1.12244 36.3926 0.339327 37.6432 0.174459C38.9831 0.00959509 40.0997 0.256893 40.993 0.916353C41.9756 1.49339 42.5116 2.40015 42.6009 3.63664C42.7796 4.7907 42.2436 6.06841 40.993 7.46978C39.8317 8.7887 38.8938 10.1076 38.1791 11.4266C37.5538 12.663 37.1072 13.8995 36.8392 15.136C39.6977 15.3833 41.9756 16.3313 43.6729 17.98C45.3701 19.5462 46.2188 21.6482 46.2188 24.2861C46.2188 26.9239 45.3255 29.1084 43.5389 30.8395C41.7523 32.4882 39.3404 33.3125 36.3032 33.3125C33.1767 33.3125 30.7202 32.3233 28.9336 30.3449C27.147 28.3665 26.2537 25.605 26.2537 22.0604C26.2537 19.0928 26.745 16.0016 27.7277 12.7867C28.7996 9.48938 30.8988 6.06842 34.0253 2.5238Z" fill="#135CE7" fill-opacity="0.2"/>
</svg>
