<svg width="44" height="50" viewBox="0 0 44 50" fill="none" xmlns="http://www.w3.org/2000/svg">
<path d="M9.75 15H12.25V12.5C12.25 11.7917 12.0104 11.1979 11.5312 10.7188C11.0521 10.2396 10.4583 10 9.75 10C9.04167 10 8.44792 10.2396 7.96875 10.7188C7.48958 11.1979 7.25 11.7917 7.25 12.5C7.25 13.2083 7.48958 13.8021 7.96875 14.2812C8.44792 14.7604 9.04167 15 9.75 15ZM21 15C21.7083 15 22.3021 14.7604 22.7812 14.2812C23.2604 13.8021 23.5 13.2083 23.5 12.5C23.5 11.7917 23.2604 11.1979 22.7812 10.7188C22.3021 10.2396 21.7083 10 21 10C20.2917 10 19.6979 10.2396 19.2188 10.7188C18.7396 11.1979 18.5 11.7917 18.5 12.5V15H21ZM19.6875 50C18.5208 50 17.4271 49.75 16.4062 49.25C15.3854 48.75 14.5208 48.0417 13.8125 47.125L0.1875 29.8125L1.375 28.5625C2.20833 27.6875 3.20833 27.1667 4.375 27C5.54167 26.8333 6.625 27.0625 7.625 27.6875L12.25 30.5V20H9.75C7.66667 20 5.89583 19.2708 4.4375 17.8125C2.97917 16.3542 2.25 14.5833 2.25 12.5C2.25 10.4167 2.97917 8.64583 4.4375 7.1875C5.89583 5.72917 7.66667 5 9.75 5C10.2083 5 10.6354 5.04167 11.0312 5.125C11.4271 5.20833 11.8333 5.3125 12.25 5.4375V2.5C12.25 1.79167 12.4896 1.19792 12.9688 0.71875C13.4479 0.239583 14.0417 0 14.75 0C15.4583 0 16.0625 0.239583 16.5625 0.71875C17.0625 1.19792 17.3125 1.79167 17.3125 2.5V6C17.8958 5.66667 18.4896 5.41667 19.0938 5.25C19.6979 5.08333 20.3333 5 21 5C23.0833 5 24.8542 5.72917 26.3125 7.1875C27.7708 8.64583 28.5 10.4167 28.5 12.5C28.5 14.5833 27.7708 16.3542 26.3125 17.8125C24.8542 19.2708 23.0833 20 21 20H17.3125V39.5L11.25 35.75L17.75 44.0625C18 44.3542 18.2917 44.5833 18.625 44.75C18.9583 44.9167 19.3125 45 19.6875 45H33.5C34.875 45 36.0521 44.5104 37.0312 43.5312C38.0104 42.5521 38.5 41.375 38.5 40V30C38.5 29.2917 38.2604 28.6979 37.7812 28.2188C37.3021 27.7396 36.7083 27.5 36 27.5H22.3125V22.5H36C38.0833 22.5 39.8542 23.2292 41.3125 24.6875C42.7708 26.1458 43.5 27.9167 43.5 30V40C43.5 42.75 42.5208 45.1042 40.5625 47.0625C38.6042 49.0208 36.25 50 33.5 50H19.6875Z" fill="#2A292C"/>
</svg>
