<svg width="41" height="56" viewBox="0 0 41 56" fill="none" xmlns="http://www.w3.org/2000/svg">
<path d="M3.25 38.125C2.33333 36.5417 1.64583 34.9167 1.1875 33.25C0.729167 31.5833 0.5 29.875 0.5 28.125C0.5 22.5417 2.4375 17.7917 6.3125 13.875C10.1875 9.95833 14.9167 8 20.5 8H20.9375L16.9375 4L20.4375 0.5L30.4375 10.5L20.4375 20.5L16.9375 17L20.9375 13H20.5C16.3333 13 12.7917 14.4688 9.875 17.4062C6.95833 20.3438 5.5 23.9167 5.5 28.125C5.5 29.2083 5.625 30.2708 5.875 31.3125C6.125 32.3542 6.5 33.375 7 34.375L3.25 38.125ZM20.5625 55.5L10.5625 45.5L20.5625 35.5L24.0625 39L20.0625 43H20.5C24.6667 43 28.2083 41.5312 31.125 38.5938C34.0417 35.6562 35.5 32.0833 35.5 27.875C35.5 26.7917 35.375 25.7292 35.125 24.6875C34.875 23.6458 34.5 22.625 34 21.625L37.75 17.875C38.6667 19.4583 39.3542 21.0833 39.8125 22.75C40.2708 24.4167 40.5 26.125 40.5 27.875C40.5 33.4583 38.5625 38.2083 34.6875 42.125C30.8125 46.0417 26.0833 48 20.5 48H20.0625L24.0625 52L20.5625 55.5Z" fill="#2A292C"/>
</svg>
