<svg width="61" height="60" viewBox="0 0 61 60" fill="none" xmlns="http://www.w3.org/2000/svg">
<path d="M49.5 52.5L33.75 36.75C32.5 37.75 31.0625 38.5417 29.4375 39.125C27.8125 39.7083 26.0833 40 24.25 40C19.7083 40 15.8646 38.4271 12.7188 35.2812C9.57292 32.1354 8 28.2917 8 23.75C8 19.2083 9.57292 15.3646 12.7188 12.2188C15.8646 9.07292 19.7083 7.5 24.25 7.5C28.7917 7.5 32.6354 9.07292 35.7812 12.2188C38.9271 15.3646 40.5 19.2083 40.5 23.75C40.5 25.5833 40.2083 27.3125 39.625 28.9375C39.0417 30.5625 38.25 32 37.25 33.25L53 49L49.5 52.5ZM24.25 35C27.375 35 30.0312 33.9062 32.2188 31.7188C34.4062 29.5312 35.5 26.875 35.5 23.75C35.5 20.625 34.4062 17.9688 32.2188 15.7812C30.0312 13.5938 27.375 12.5 24.25 12.5C21.125 12.5 18.4688 13.5938 16.2812 15.7812C14.0938 17.9688 13 20.625 13 23.75C13 26.875 14.0938 29.5312 16.2812 31.7188C18.4688 33.9062 21.125 35 24.25 35Z" fill="#2A292C"/>
</svg>
