<svg width="61" height="60" viewBox="0 0 61 60" fill="none" xmlns="http://www.w3.org/2000/svg">
<path d="M23 41.25C21.25 41.25 19.7708 40.6458 18.5625 39.4375C17.3542 38.2292 16.75 36.75 16.75 35C16.75 33.25 17.3542 31.7708 18.5625 30.5625C19.7708 29.3542 21.25 28.75 23 28.75C24.75 28.75 26.2292 29.3542 27.4375 30.5625C28.6458 31.7708 29.25 33.25 29.25 35C29.25 36.75 28.6458 38.2292 27.4375 39.4375C26.2292 40.6458 24.75 41.25 23 41.25ZM13 55C11.625 55 10.4479 54.5104 9.46875 53.5312C8.48958 52.5521 8 51.375 8 50V15C8 13.625 8.48958 12.4479 9.46875 11.4688C10.4479 10.4896 11.625 10 13 10H15.5V5H20.5V10H40.5V5H45.5V10H48C49.375 10 50.5521 10.4896 51.5312 11.4688C52.5104 12.4479 53 13.625 53 15V50C53 51.375 52.5104 52.5521 51.5312 53.5312C50.5521 54.5104 49.375 55 48 55H13ZM13 50H48V25H13V50Z" fill="#2A292C"/>
</svg>
